<svg width="208" height="40" viewBox="0 0 208 40" fill="none" xmlns="http://www.w3.org/2000/svg">
<circle cx="20" cy="20" r="20" fill="#F86338"/>
<path d="M15.08 20.28L11.656 14.312L10.744 14.104V13.112H15.448V14.104L14.312 14.312L16.312 18.232L16.76 19.336L17.224 18.232L19.064 14.312L17.816 14.104V13.112H21.72V14.104L20.728 14.296L17.544 20.264V23.88L19.288 24.04V25H13.384V24.04L15.08 23.88V20.28ZM24.9099 25.144C24.2379 25.144 23.7419 24.9893 23.4219 24.68C23.1019 24.3707 22.9419 23.88 22.9419 23.208V17.336H21.9019V16.504C21.9872 16.472 22.1419 16.4187 22.3659 16.344C22.5899 16.2587 22.7605 16.1893 22.8779 16.136C23.0592 15.9973 23.2139 15.7573 23.3419 15.416C23.4379 15.192 23.6139 14.6373 23.8699 13.752H25.1499L25.2139 16.104H27.6619V17.336H25.2299V21.832C25.2299 22.4293 25.2459 22.8507 25.2779 23.096C25.3099 23.3413 25.3792 23.5013 25.4859 23.576C25.5925 23.64 25.7792 23.672 26.0459 23.672C26.3125 23.672 26.5899 23.6453 26.8779 23.592C27.1659 23.528 27.4059 23.4533 27.5979 23.368L27.9019 24.264C27.6032 24.488 27.1659 24.6907 26.5899 24.872C26.0139 25.0533 25.4539 25.144 24.9099 25.144Z" fill="white"/>
<circle cx="76" cy="20" r="20" fill="#F86338"/>
<path d="M67.888 15.312L66.576 15.104V14.112H75.408L75.568 17.008H74.288L73.696 15.248L70.24 15.072V19.6L72.624 19.552L72.928 18.144H73.952V22.208H72.944L72.624 20.768L70.24 20.704V24.88L72.688 25.04V26H66.656V25.04L67.888 24.88V15.312ZM76.0331 13.232L78.9611 12.88H78.9931L79.4411 13.184V17.904C79.7291 17.616 80.0811 17.376 80.4971 17.184C80.9238 16.9813 81.3825 16.88 81.8731 16.88C82.8971 16.88 83.7291 17.2427 84.3691 17.968C85.0198 18.6827 85.3451 19.7813 85.3451 21.264C85.3451 22.1813 85.1531 23.0133 84.7691 23.76C84.3851 24.5067 83.8305 25.0987 83.1051 25.536C82.3905 25.9627 81.5585 26.176 80.6091 26.176C79.7665 26.176 79.0358 26.1067 78.4171 25.968C77.7985 25.8187 77.4038 25.6853 77.2331 25.568V14.256L76.0331 14.064V13.232ZM81.0251 18.288C80.7051 18.288 80.4011 18.3627 80.1131 18.512C79.8358 18.6507 79.6118 18.8107 79.4411 18.992V24.832C79.5051 24.9493 79.6545 25.0453 79.8891 25.12C80.1238 25.1947 80.3905 25.232 80.6891 25.232C81.3718 25.232 81.9158 24.9173 82.3211 24.288C82.7371 23.648 82.9451 22.704 82.9451 21.456C82.9451 20.3787 82.7691 19.584 82.4171 19.072C82.0651 18.5493 81.6011 18.288 81.0251 18.288Z" fill="white"/>
<circle cx="132" cy="20" r="20" fill="#F86338"/>
<path d="M125.512 15.168L123.224 15.248L122.6 18.736H121.256L121.528 14.112H131.848L132.04 18.736H130.776L130.152 15.248L127.896 15.168V24.88L130.136 25.04V26H123.464V25.04L125.512 24.88V15.168ZM132.247 17.12H136.375V18.032L135.255 18.224L136.439 22.48L136.823 24.224L137.175 22.464L138.615 17.12H140.551L142.135 22.464L142.519 24.224L142.903 22.48L144.023 18.24L142.855 18.032V17.12H146.279V18.032L145.463 18.208L143.031 26.128H141.191L139.575 20.944L139.207 19.04L138.919 20.944L137.431 26.128H135.575L133.015 18.208L132.247 18.032V17.12Z" fill="white"/>
<circle cx="188" cy="20" r="20" fill="#F86338"/>
<path d="M183.096 15.312L181.736 15.104V14.112H186.856V15.104L185.448 15.312V24.88L186.856 25.056V26H181.736V25.04L183.096 24.88V15.312ZM192.25 30.32C190.821 30.32 189.786 30.096 189.146 29.648C188.506 29.2 188.186 28.592 188.186 27.824C188.186 27.3867 188.33 26.9707 188.618 26.576C188.917 26.192 189.274 25.904 189.69 25.712C189.199 25.424 188.954 24.9653 188.954 24.336C188.954 23.9733 189.071 23.632 189.306 23.312C189.541 22.9813 189.845 22.7253 190.218 22.544C189.631 22.32 189.194 21.9787 188.906 21.52C188.618 21.0613 188.474 20.5173 188.474 19.888C188.474 19.28 188.65 18.752 189.002 18.304C189.365 17.8453 189.845 17.4933 190.442 17.248C191.05 17.0027 191.706 16.88 192.41 16.88C193.658 16.88 194.586 17.12 195.194 17.6C195.333 17.4187 195.567 17.248 195.898 17.088C196.229 16.928 196.57 16.848 196.922 16.848H197.482V18.592H195.834C195.994 18.9333 196.074 19.296 196.074 19.68C196.085 20.6507 195.743 21.4293 195.05 22.016C194.357 22.592 193.407 22.88 192.202 22.88C191.701 22.88 191.279 22.8427 190.938 22.768C190.831 22.9067 190.746 23.056 190.682 23.216C190.629 23.3653 190.602 23.4987 190.602 23.616C190.602 23.968 190.725 24.208 190.97 24.336C191.226 24.464 191.679 24.528 192.33 24.528H194.042C196.218 24.528 197.306 25.3173 197.306 26.896C197.306 27.5573 197.071 28.1493 196.602 28.672C196.133 29.1947 195.509 29.6 194.73 29.888C193.951 30.176 193.125 30.32 192.25 30.32ZM192.362 21.888C193.354 21.888 193.85 21.2107 193.85 19.856C193.85 19.1627 193.722 18.656 193.466 18.336C193.221 18.0053 192.842 17.84 192.33 17.84C191.829 17.84 191.439 18.0053 191.162 18.336C190.895 18.656 190.762 19.1413 190.762 19.792C190.762 21.1893 191.295 21.888 192.362 21.888ZM192.49 29.216C193.162 29.216 193.743 29.0507 194.234 28.72C194.725 28.4 194.97 27.952 194.97 27.376C194.97 26.9173 194.847 26.5867 194.602 26.384C194.367 26.1813 193.941 26.08 193.322 26.08H191.578C191.311 26.08 191.066 26.064 190.842 26.032C190.554 26.416 190.41 26.8747 190.41 27.408C190.41 27.9947 190.57 28.4427 190.89 28.752C191.21 29.0613 191.743 29.216 192.49 29.216Z" fill="white"/>
</svg>
